<svg xmlns="http://www.w3.org/2000/svg" viewBox="0 0 300 300" class="prefix__iconLeft">
  <path fill="transparent" class="prefix__logo-background-square" d="M0 0h300v300H0z"/>
  <path d="M100.493 147.002c1.827-.628 2.855-1.884 2.855-3.788 0-2.474-1.656-4.206-4.645-4.568-.913-.114-1.446-.114-2.379-.114h-6.567v18.387h6.681c1.047 0 1.618 0 2.55-.114 2.456-.343 5.045-1.96 5.045-5.368 0-2.38-1.18-3.826-3.54-4.435m-7.062-5.596h2.665c.418 0 .894.038 1.332.076 1.218.171 2.075.838 2.075 2.227 0 1.333-.666 2.075-1.999 2.284a10 10 0 0 1-1.313.076h-2.76zm4.416 12.582c-.343.019-.8.019-1.218.019H93.43v-5.197h3.064c.42 0 .857.038 1.295.096 1.332.133 2.379.837 2.379 2.55 0 1.542-1.047 2.417-2.322 2.532zm21.794-11.25h-3.674v7.233c0 3.198-1.275 4.702-3.121 4.702-1.694 0-2.55-.933-2.741-2.398a20 20 0 0 1-.095-1.942v-7.595h-3.693v8.376c0 1.142.038 1.865.133 2.588.324 1.942 2.094 3.598 5.025 3.598 1.352 0 2.36-.267 3.407-.971l1.085-1.808v2.398h3.674zm17.169-5.405h-3.674v7.309l-.932-1.466c-.724-.514-2.17-.8-3.331-.8-3.655 0-6.796 2.57-6.796 7.729 0 4.168 2.342 7.195 6.32 7.195 1.427 0 2.874-.381 3.673-.99l1.066-1.58v2.189h3.674zm-7.347 17.378c-2.19 0-3.579-1.942-3.579-4.854 0-3.274 1.58-4.91 3.712-4.91 1.694 0 3.54 1.16 3.54 4.358v.685c0 3.465-1.656 4.721-3.673 4.721m24.535-11.973h-3.674v1.904l-.932-1.466c-.724-.514-2.17-.8-3.331-.8-3.655 0-6.796 2.475-6.796 7.614 0 4.15 2.475 7.005 6.472 7.005 1.447 0 2.722-.362 3.521-.99l1.066-1.56v.342c0 .61 0 1.2-.038 1.732-.133 2.265-1.503 3.407-3.768 3.407-1.904 0-3.122-.818-3.293-2.131l-.02-.229h-3.578l.038.267c.324 3.102 2.627 4.834 6.795 4.834 4.473 0 7.348-2.132 7.519-6.547.019-.78.019-1.866.019-2.741zm-7.347 11.668c-2.19 0-3.579-1.827-3.579-4.74 0-3.254 1.58-4.72 3.712-4.72 1.694 0 3.54 1.161 3.54 4.36v.399c0 3.464-1.656 4.701-3.673 4.701m23.621-4.872c0-3.864-2.284-7.157-6.624-7.157s-7.195 3.16-7.195 7.5c0 4.986 3.008 7.423 6.89 7.423 3.332 0 5.997-1.694 6.72-4.987h-3.674c-.247 1.522-1.39 2.398-2.95 2.398-1.713 0-3.045-.933-3.293-3.921h10.088c.038-.476.038-.914.038-1.256m-6.795-4.588c1.77 0 2.78 1.2 3.027 3.446h-6.244c.324-2.342 1.523-3.446 3.217-3.446m13.724.324h2.931v-2.417h-2.931v-3.503h-3.674v3.503h-2.075v2.417h2.075v6.986c0 .799 0 1.408.057 2.055.153 1.999 1.142 2.893 3.883 2.893.838 0 1.6-.038 2.437-.17v-2.4c-2.056.153-2.57-.17-2.665-1.56-.038-.362-.038-.761-.038-1.237zm21.832 1.732c1.846-.628 2.855-1.884 2.855-3.788 0-2.474-1.656-4.206-4.644-4.568-.895-.114-1.428-.114-2.36-.114h-6.586v18.387h6.68c1.048 0 1.638 0 2.57-.114 2.437-.343 5.026-1.96 5.026-5.368 0-2.38-1.162-3.826-3.54-4.435zm-7.062-5.596h2.665c.419 0 .914.038 1.333.076 1.218.171 2.074.838 2.074 2.227 0 1.333-.666 2.075-1.998 2.284a10 10 0 0 1-1.295.076h-2.779zm4.416 12.582c-.342.019-.8.019-1.218.019h-3.198v-5.197h3.065c.419 0 .856.038 1.313.096 1.333.133 2.36.837 2.36 2.55 0 1.542-1.027 2.417-2.322 2.532m15.114-11.611c-4.72 0-7.348 3.14-7.348 7.461 0 4.283 2.627 7.462 7.348 7.462 4.72 0 7.366-3.18 7.366-7.462 0-4.32-2.646-7.461-7.366-7.461m0 12.334c-2.208 0-3.54-1.846-3.54-4.873 0-3.064 1.332-4.892 3.54-4.892s3.54 1.828 3.54 4.892c0 3.027-1.332 4.873-3.54 4.873m17.987 2.208h3.597c-.209-1.58-.266-2.532-.266-3.598v-4.587c0-.761-.019-1.523-.076-2.189-.21-2.436-1.713-4.168-5.672-4.168-3.388 0-5.977 1.808-6.072 5.006l3.56-.038c.113-1.542.913-2.399 2.378-2.399 1.428 0 2.075.724 2.19 1.713.037.476.037.914.037 1.333v.285h-.894c-5.14 0-7.804 1.77-7.804 4.892 0 2.684 2.094 4.13 4.549 4.13 1.332 0 2.532-.266 3.521-.932l.686-1.523zm-3.065-2.208c-1.294 0-2.15-.59-2.15-1.846 0-1.866 1.96-2.532 4.891-2.323v1.162c0 1.96-1.237 3.007-2.74 3.007zm17.036-12.315c-.8 0-1.732.323-2.436.952l-1.104 1.98v-2.59h-3.693v14.181h3.693v-6.51c0-3.807 1.504-5.158 4.568-4.949v-2.95c-.305-.095-.61-.114-1.028-.114M260 137.333h-3.674v7.309l-.932-1.466c-.724-.514-2.151-.8-3.331-.8-3.655 0-6.796 2.57-6.796 7.729 0 4.168 2.342 7.195 6.32 7.195 1.427 0 2.874-.381 3.673-.99l1.066-1.58v2.189H260zm-7.347 17.378c-2.19 0-3.579-1.942-3.579-4.854 0-3.274 1.58-4.91 3.712-4.91 1.694 0 3.54 1.16 3.54 4.358v.685c0 3.465-1.656 4.721-3.673 4.721"/>
  <defs>
    <linearGradient gradientTransform="rotate(25)" id="a" x1="0%" y1="0%" x2="100%" y2="0%">
      <stop offset="0%" stop-color="#8da1d8"/>
      <stop offset="100%" stop-color="#3c6ebe"/>
    </linearGradient>
  </defs>
  <path clip-rule="evenodd" d="M71.567 15.476 59.975 0 19.417 29.243H35.77zm10.912 13.767-4.625-12.508-34.712 12.508zm2.434-1.527h6.64c1.899 0 3.121 1.48 3.121 3.373v21.198l2.992-1.495-.03-21.297c0-1.9-2.656-4.831-4.556-4.831h-9.379l1.06 2.854zm9.761 48.99v17.43c1.732-.184 3.045-1.739 3.045-3.518l-.023-15.423zM7.939 27.716h8.784l4.258-3.052h-9.966l.069-.023c-7.372-.007-9.624.077-9.555 9.249v62.04c0 1.901 1.893 3.519 3.793 3.519h83.179c1.899 0 3.808-1.565 3.808-3.457l-.007-16.566-.367.183h-7.631c-6.746 0-12.211-5.464-12.211-12.21S77.558 55.19 84.304 55.19h7.631l.358-.184-.008-20.788c0-1.9-1.885-3.449-3.784-3.449H11.008a5.5 5.5 0 0 1-.756-.061H8.374a1.53 1.53 0 0 1-1.526-1.526 1.52 1.52 0 0 1 1.091-1.466M91.935 58.24h-7.631a9.154 9.154 0 0 0-9.158 9.157 9.155 9.155 0 0 0 9.158 9.157h7.631l5.738-4.815-.023-18.192zm-12.21 9.157a4.58 4.58 0 0 1 4.579-4.577 4.58 4.58 0 0 1 4.578 4.577 4.583 4.583 0 0 1-4.578 4.579 4.58 4.58 0 0 1-4.579-4.579" fill="url(#a)" transform="translate(39.416 130.999)scale(.38213)"/>
</svg>
