<?xml version="1.0" encoding="UTF-8" standalone="no"?>
<svg
   viewBox="0 0 240 240"
   class="prefix__iconLeft"
   version="1.1"
   id="svg2"
   width="32"
   height="32"
   xmlns="http://www.w3.org/2000/svg"
   xmlns:svg="http://www.w3.org/2000/svg">
  <defs
     id="defs2">
    <linearGradient
       gradientTransform="matrix(2.2902316,0,0,2.2902321,-3.5570027,0)"
       id="a"
       x1="1.5531187"
       y1="0"
       x2="99.359825"
       y2="0"
       gradientUnits="userSpaceOnUse">
      <stop
         offset="0%"
         stop-color="#8da1d8"
         id="stop1" />
      <stop
         offset="100%"
         stop-color="#3c6ebe"
         id="stop2" />
    </linearGradient>
  </defs>
  <path
     clip-rule="evenodd"
     d="M 163.10017,34.858319 136.10604,0 41.659121,65.867264 H 79.74015 Z m 25.41064,31.008945 -10.77018,-28.17316 -80.833401,28.17316 z m 5.66803,-3.439429 h 15.46249 c 4.42218,0 7.26782,3.333566 7.26782,7.59738 v 47.746625 l 6.96744,-3.36735 -0.0699,-47.969618 c 0,-4.27958 -6.185,-10.881397 -10.60951,-10.881397 h -21.84076 l 2.46841,6.42838 z M 216.90915,172.77347 V 212.033 C 220.94244,211.61856 224,208.11606 224,204.10901 l -0.0537,-34.73893 z M 14.930448,62.427835 h 20.45519 l 9.915548,-6.87436 H 22.093489 l 0.160679,-0.05187 C 5.0870847,55.48569 -0.157119,55.675017 0.00356002,76.334154 V 216.07377 C 0.00356002,220.3556 4.4117653,224 8.8362715,224 H 202.53417 c 4.42217,0 8.86765,-3.52503 8.86765,-7.78659 l -0.0164,-37.31345 -0.85463,0.41219 h -17.77021 c -15.70932,0 -28.4356,-12.30717 -28.4356,-27.50194 0,-15.19476 12.72628,-27.49969 28.4356,-27.49969 h 17.77021 l 0.83368,-0.41443 -0.0189,-46.823131 c 0,-4.279582 -4.38957,-7.768565 -8.81175,-7.768565 H 22.077189 a 12.807781,12.388263 0 0 1 -1.760488,-0.137338 h -4.373275 a 3.5628918,3.4461894 0 0 1 -3.553577,-3.43719 3.5396049,3.4236653 0 0 1 2.540599,-3.302031 M 210.53088,131.18044 h -17.77022 a 21.316805,20.618574 0 0 0 -21.32611,20.62533 21.319135,20.620826 0 0 0 21.32611,20.62534 h 17.77022 l 13.36201,-10.84536 -0.0537,-40.97588 z m -28.43328,20.62533 a 10.665389,10.316045 0 0 1 10.66306,-10.30928 10.665389,10.316045 0 0 1 10.66074,10.30928 10.672375,10.322801 0 0 1 -10.66074,10.3138 10.665389,10.316045 0 0 1 -10.66306,-10.3138"
     fill="url(#a)"
     id="path2"
     style="fill:url(#a);stroke-width:2.29023" />
</svg>
